<mxfile host="app.diagrams.net" modified="2022-03-24T16:44:54.045Z" agent="5.0 (Windows NT 10.0; Win64; x64) AppleWebKit/537.36 (KHTML, like Gecko) Chrome/99.0.4844.51 Safari/537.36" etag="JAnnEqlAW4a_ZAKoPVRk" version="17.2.1" type="github">
  <diagram id="C5RBs43oDa-KdzZeNtuy" name="Page-1">
    <mxGraphModel dx="1422" dy="762" grid="1" gridSize="10" guides="1" tooltips="1" connect="1" arrows="1" fold="1" page="1" pageScale="1" pageWidth="827" pageHeight="1169" math="0" shadow="0">
      <root>
        <mxCell id="WIyWlLk6GJQsqaUBKTNV-0" />
        <mxCell id="WIyWlLk6GJQsqaUBKTNV-1" parent="WIyWlLk6GJQsqaUBKTNV-0" />
        <mxCell id="3yEqKJhA1tRX-wCZNCWJ-0" value="&lt;b&gt;&lt;font style=&quot;font-size: 15px&quot;&gt;UNIVERSITY&lt;/font&gt;&lt;/b&gt;" style="rounded=0;whiteSpace=wrap;html=1;" vertex="1" parent="WIyWlLk6GJQsqaUBKTNV-1">
          <mxGeometry x="440" y="250" width="160" height="80" as="geometry" />
        </mxCell>
        <mxCell id="3yEqKJhA1tRX-wCZNCWJ-1" style="edgeStyle=orthogonalEdgeStyle;rounded=0;orthogonalLoop=1;jettySize=auto;html=1;exitX=0.5;exitY=0;exitDx=0;exitDy=0;entryX=1.005;entryY=0.586;entryDx=0;entryDy=0;entryPerimeter=0;endArrow=diamondThin;endFill=0;endSize=15;startSize=15;" edge="1" parent="WIyWlLk6GJQsqaUBKTNV-1" source="3yEqKJhA1tRX-wCZNCWJ-2" target="3yEqKJhA1tRX-wCZNCWJ-0">
          <mxGeometry relative="1" as="geometry" />
        </mxCell>
        <mxCell id="3yEqKJhA1tRX-wCZNCWJ-2" value="&lt;b&gt;CLASSROOMS&lt;/b&gt;" style="rounded=0;whiteSpace=wrap;html=1;" vertex="1" parent="WIyWlLk6GJQsqaUBKTNV-1">
          <mxGeometry x="680" y="400" width="120" height="60" as="geometry" />
        </mxCell>
        <mxCell id="3yEqKJhA1tRX-wCZNCWJ-3" style="edgeStyle=orthogonalEdgeStyle;rounded=0;orthogonalLoop=1;jettySize=auto;html=1;entryX=0.624;entryY=1.029;entryDx=0;entryDy=0;entryPerimeter=0;endArrow=diamondThin;endFill=0;endSize=15;startSize=15;" edge="1" parent="WIyWlLk6GJQsqaUBKTNV-1" source="3yEqKJhA1tRX-wCZNCWJ-4" target="3yEqKJhA1tRX-wCZNCWJ-0">
          <mxGeometry relative="1" as="geometry" />
        </mxCell>
        <mxCell id="3yEqKJhA1tRX-wCZNCWJ-4" value="&lt;b&gt;DEPARTMENTS&lt;/b&gt;" style="rounded=0;whiteSpace=wrap;html=1;" vertex="1" parent="WIyWlLk6GJQsqaUBKTNV-1">
          <mxGeometry x="480" y="400" width="120" height="60" as="geometry" />
        </mxCell>
        <mxCell id="3yEqKJhA1tRX-wCZNCWJ-5" style="edgeStyle=orthogonalEdgeStyle;rounded=0;orthogonalLoop=1;jettySize=auto;html=1;endArrow=diamondThin;endFill=0;startSize=15;endSize=15;entryX=-0.001;entryY=0.626;entryDx=0;entryDy=0;entryPerimeter=0;" edge="1" parent="WIyWlLk6GJQsqaUBKTNV-1" source="3yEqKJhA1tRX-wCZNCWJ-7" target="3yEqKJhA1tRX-wCZNCWJ-0">
          <mxGeometry relative="1" as="geometry">
            <mxPoint x="340" y="280" as="targetPoint" />
            <Array as="points">
              <mxPoint x="340" y="300" />
            </Array>
          </mxGeometry>
        </mxCell>
        <mxCell id="3yEqKJhA1tRX-wCZNCWJ-6" style="edgeStyle=orthogonalEdgeStyle;rounded=0;orthogonalLoop=1;jettySize=auto;html=1;endArrow=diamondThin;endFill=0;startSize=15;endSize=15;" edge="1" parent="WIyWlLk6GJQsqaUBKTNV-1" source="3yEqKJhA1tRX-wCZNCWJ-7" target="3yEqKJhA1tRX-wCZNCWJ-4">
          <mxGeometry relative="1" as="geometry" />
        </mxCell>
        <mxCell id="3yEqKJhA1tRX-wCZNCWJ-7" value="&lt;b&gt;WORK OFFICES&lt;/b&gt;" style="rounded=0;whiteSpace=wrap;html=1;" vertex="1" parent="WIyWlLk6GJQsqaUBKTNV-1">
          <mxGeometry x="280" y="400" width="120" height="60" as="geometry" />
        </mxCell>
        <mxCell id="3yEqKJhA1tRX-wCZNCWJ-8" style="edgeStyle=orthogonalEdgeStyle;rounded=0;orthogonalLoop=1;jettySize=auto;html=1;entryX=0;entryY=0.25;entryDx=0;entryDy=0;endArrow=diamondThin;endFill=0;startSize=15;endSize=15;" edge="1" parent="WIyWlLk6GJQsqaUBKTNV-1" source="3yEqKJhA1tRX-wCZNCWJ-10" target="3yEqKJhA1tRX-wCZNCWJ-0">
          <mxGeometry relative="1" as="geometry">
            <Array as="points">
              <mxPoint x="140" y="270" />
            </Array>
          </mxGeometry>
        </mxCell>
        <mxCell id="3yEqKJhA1tRX-wCZNCWJ-9" style="edgeStyle=orthogonalEdgeStyle;rounded=0;orthogonalLoop=1;jettySize=auto;html=1;entryX=0;entryY=0.5;entryDx=0;entryDy=0;endArrow=diamondThin;endFill=0;startSize=15;endSize=15;" edge="1" parent="WIyWlLk6GJQsqaUBKTNV-1" source="3yEqKJhA1tRX-wCZNCWJ-10" target="3yEqKJhA1tRX-wCZNCWJ-7">
          <mxGeometry relative="1" as="geometry" />
        </mxCell>
        <mxCell id="3yEqKJhA1tRX-wCZNCWJ-10" value="&lt;b&gt;EMPLOYEES&lt;/b&gt;" style="rounded=0;whiteSpace=wrap;html=1;" vertex="1" parent="WIyWlLk6GJQsqaUBKTNV-1">
          <mxGeometry x="80" y="480" width="120" height="60" as="geometry" />
        </mxCell>
        <mxCell id="3yEqKJhA1tRX-wCZNCWJ-11" style="edgeStyle=orthogonalEdgeStyle;rounded=0;orthogonalLoop=1;jettySize=auto;html=1;endArrow=block;endFill=0;startSize=15;endSize=12;entryX=0.5;entryY=1;entryDx=0;entryDy=0;" edge="1" parent="WIyWlLk6GJQsqaUBKTNV-1" source="3yEqKJhA1tRX-wCZNCWJ-12" target="3yEqKJhA1tRX-wCZNCWJ-10">
          <mxGeometry relative="1" as="geometry">
            <mxPoint x="170" y="540" as="targetPoint" />
            <Array as="points">
              <mxPoint x="260" y="580" />
              <mxPoint x="140" y="580" />
            </Array>
          </mxGeometry>
        </mxCell>
        <mxCell id="3yEqKJhA1tRX-wCZNCWJ-12" value="&lt;font style=&quot;font-size: 12px&quot;&gt;&lt;b&gt;STAFFS&lt;/b&gt;&lt;/font&gt;" style="rounded=0;whiteSpace=wrap;html=1;" vertex="1" parent="WIyWlLk6GJQsqaUBKTNV-1">
          <mxGeometry x="200" y="620" width="120" height="60" as="geometry" />
        </mxCell>
        <mxCell id="3yEqKJhA1tRX-wCZNCWJ-13" style="edgeStyle=orthogonalEdgeStyle;rounded=0;orthogonalLoop=1;jettySize=auto;html=1;endArrow=block;endFill=0;startSize=15;endSize=12;" edge="1" parent="WIyWlLk6GJQsqaUBKTNV-1" source="3yEqKJhA1tRX-wCZNCWJ-14">
          <mxGeometry relative="1" as="geometry">
            <mxPoint x="140" y="540" as="targetPoint" />
            <Array as="points">
              <mxPoint x="100" y="580" />
              <mxPoint x="140" y="580" />
            </Array>
          </mxGeometry>
        </mxCell>
        <mxCell id="3yEqKJhA1tRX-wCZNCWJ-14" value="&lt;b&gt;PROFFESORS&lt;/b&gt;" style="rounded=0;whiteSpace=wrap;html=1;" vertex="1" parent="WIyWlLk6GJQsqaUBKTNV-1">
          <mxGeometry x="40" y="620" width="120" height="60" as="geometry" />
        </mxCell>
      </root>
    </mxGraphModel>
  </diagram>
</mxfile>
